<?xml version="1.0" standalone="no"?>
<!DOCTYPE svg PUBLIC "-//W3C//DTD SVG 20010904//EN"
 "http://www.w3.org/TR/2001/REC-SVG-20010904/DTD/svg10.dtd">
<svg version="1.0" xmlns="http://www.w3.org/2000/svg"
 width="700.000000pt" height="700.000000pt" viewBox="0 0 700.000000 700.000000"
 preserveAspectRatio="xMidYMid meet">
<metadata>
Created by https://monospace.design
</metadata>
<g transform="translate(0.000000,700.000000) scale(0.100000,-0.100000)"
fill="#000000" stroke="none">
<path d="M2427 5814 c-1 -1 -65 -4 -142 -8 -181 -8 -196 -10 -430 -51 -16 -3
-79 -18 -140 -35 -60 -17 -121 -33 -134 -35 -13 -3 -35 -12 -50 -19 -14 -7
-39 -16 -56 -20 -16 -4 -43 -14 -60 -21 -16 -7 -52 -23 -80 -35 -307 -133
-624 -374 -837 -635 -229 -283 -415 -700 -464 -1040 -3 -27 -8 -59 -10 -70
-25 -129 -25 -568 -1 -690 3 -11 8 -42 12 -70 10 -71 50 -237 79 -325 127
-394 358 -741 666 -1000 36 -30 67 -58 70 -61 12 -13 200 -140 250 -168 236
-134 515 -239 760 -286 132 -26 196 -36 260 -41 41 -3 91 -8 110 -9 28 -3
1024 -7 1223 -5 l47 0 0 1155 0 1155 400 0 400 0 0 118 c1 64 2 414 3 777 l2
660 170 0 c94 -1 208 -4 255 -8 76 -6 109 -11 230 -32 376 -65 711 -263 918
-543 119 -161 226 -418 258 -617 3 -22 7 -42 9 -45 8 -13 19 -198 19 -310 0
-160 -10 -249 -43 -391 -38 -167 -130 -378 -223 -514 -219 -320 -536 -522
-953 -609 -38 -8 -92 -17 -120 -20 -27 -4 -68 -9 -90 -12 -22 -3 -125 -7 -230
-9 -104 -2 -193 -4 -197 -4 -3 -1 -6 -170 -6 -377 l-1 -376 277 5 c152 3 288
7 302 10 14 2 54 8 90 12 36 5 67 9 70 10 3 1 25 5 50 9 207 36 444 113 639
207 96 47 299 163 311 178 3 4 17 14 31 23 96 61 296 245 400 368 288 342 470
774 516 1230 10 96 10 412 1 510 -62 622 -355 1167 -828 1540 -36 28 -73 58
-83 66 -9 8 -19 14 -21 14 -2 0 -41 25 -87 56 -196 131 -527 266 -779 319
-159 34 -233 44 -415 60 -38 4 -1174 8 -1257 6 -17 -1 -18 -63 -18 -1156 l0
-1155 -400 0 -400 0 0 -92 c0 -51 -1 -401 -3 -778 l-2 -685 -175 1 c-158 0
-300 8 -355 18 -11 2 -42 7 -68 10 -167 25 -377 92 -522 168 -230 121 -409
292 -536 513 -88 153 -163 374 -183 540 -3 22 -9 65 -13 95 -9 73 -9 318 0
400 23 194 73 362 163 545 142 291 367 514 658 650 85 40 223 92 269 101 10 2
27 6 37 9 94 30 313 56 505 60 105 2 198 4 207 5 16 0 17 29 17 375 l1 375
-58 1 c-31 0 -92 1 -135 2 -43 1 -79 1 -80 1z"/>
</g>
</svg>
