<?xml version="1.0" encoding="UTF-8"?><svg id="a" xmlns="http://www.w3.org/2000/svg" viewBox="0 0 800 800"><defs><style>.b{fill:#18d693;}</style></defs><path class="b" d="M459.81534,799.99983h-121.26585v-60h121.26585v60Zm80-160H259.81534v60h280v-60ZM400.41592,.00032C258.02725-.22282,141.28458,115.23665,140.01065,257.61995c-.67285,75.19336,30.57764,143.0957,81.01855,190.97705,25.02441,23.75439,38.9707,56.89893,38.9707,91.40283h0v60h220v-60h-50.55176v-150.63281l11.79346-11.79346,84.85303-84.85303-42.42627-42.42627-84.85303,84.85254-84.85254-84.85254-42.42676,42.42627,97.91211,97.91211v149.36719h-49.44824c0-50.95703-21.01709-100.1333-57.66309-134.91895-19.72363-18.72314-35.17969-40.79541-45.93799-65.60254-11.12939-25.6626-16.64404-53.02295-16.39062-81.32178,.97754-109.26367,90.69531-198.15625,199.99561-198.15625h.31787c53.354,.0835,103.50098,20.92432,141.20459,58.68359,37.70752,37.7627,58.47363,87.94971,58.47363,141.31592,0,55.26465-22.04736,106.70215-62.08105,144.8374-36.80859,35.06396-57.91895,84.32812-57.91895,135.16113v.00146h60v-.00146c0-34.6626,14.20459-67.80908,39.30273-91.71729,49.71436-47.35742,80.69727-114.20068,80.69727-188.28125C659.99991,116.54476,543.81876,.22493,400.41592,.00032Z"/></svg>