<?xml version="1.0" encoding="UTF-8"?><svg xmlns="http://www.w3.org/2000/svg" viewBox="0 0 800 800"><defs><style>.d{fill:#18d693;}</style></defs><g id="a"><g><path class="d" d="M780.9316,48.6067l-.7041-29.0371-29.0449,.2539c-2.374,.0205-58.9824,.7158-132.749,18.7988-43.4619,10.6533-84.0391,25.1914-120.6064,43.21-46.3262,22.8281-86.3447,51.3467-118.9434,84.7637-31.4282,32.2173-58.6299,72.1099-80.9341,118.5996H140v200h98.5752c-6.5845,43.0601-7.5127,71.9082-7.5625,73.6436l-.9805,33.7607,33.5859-3.5693c1.7529-.1865,31.8789-3.4805,76.3818-13.8169v84.9819h140v-60h-79v-41.5107c.0942-.0293,.188-.0576,.2822-.0869,27.5469-8.5762,53.8711-18.3462,78.7178-29.1899v70.7876h60v-100.7349c40.8794-23.2759,76.1958-50.0195,105.1162-79.6655,32.5908-33.4092,60.0156-73.8555,81.5137-120.2158,16.9824-36.626,30.3252-77.0176,39.6572-120.0547,15.8457-73.0762,14.7012-128.5908,14.6445-130.918ZM251.8301,417.5374c-.5371,2.2349-1.0586,4.4531-1.5684,6.6582h-50.2617v-79h73.1436c-8.1338,23.0049-15.2661,47.1768-21.3135,72.3418Zm456.4707-249.0205c-8.4658,38.5596-20.4355,74.5801-35.5762,107.0586-18.6182,39.9385-42.1162,74.5996-69.8408,103.0205-63.9111,65.5146-153.791,103.208-217.9375,123.293-36.4258,11.4053-68.9551,18.5918-92.0498,22.8916,7.6416-68.7891,34.707-221.126,128.2197-316.9854,27.7275-28.4229,62.0498-52.8682,102.0156-72.6562,32.5283-16.1064,68.8359-29.1807,107.9131-38.8604,36.0439-8.9268,67.9043-13.2969,89.8213-15.4316-1.4619,21.457-4.835,52.4629-12.5654,87.6699Z"/><path class="d" d="M484.3975,232.322c0,48.5312,39.3423,87.8735,87.8735,87.8735s87.8735-39.3423,87.8735-87.8735-39.3423-87.874-87.8735-87.874-87.8735,39.3428-87.8735,87.874Zm123.3945-.2656c0,19.4712-15.7847,35.2554-35.2554,35.2554s-35.2559-15.7842-35.2559-35.2554,15.7847-35.2559,35.2559-35.2559,35.2554,15.7847,35.2554,35.2559Z"/><rect class="d" x="-6.4999" y="586.6957" width="182.9998" height="53.9998" transform="translate(-409.0524 239.8514) rotate(-45)"/><rect class="d" x="93.5001" y="686.6957" width="182.9998" height="53.9998" transform="translate(-450.4737 339.8514) rotate(-45)"/></g></g><g id="b"/><g id="c"/></svg>