<?xml version="1.0" encoding="utf-8"?>
<!-- Generator: Adobe Illustrator 26.0.3, SVG Export Plug-In . SVG Version: 6.00 Build 0)  -->
<svg version="1.1" id="Layer_1" xmlns="http://www.w3.org/2000/svg" xmlns:xlink="http://www.w3.org/1999/xlink" x="0px" y="0px"
	 viewBox="0 0 800 800" style="enable-background:new 0 0 800 800;" xml:space="preserve">
<style type="text/css">
	.st0{fill:#FFFFFF;}
</style>
<g id="a">
	<g>
		<rect x="660" y="489.8" class="st0" width="140" height="60"/>
		<rect x="660" y="250.2" class="st0" width="140" height="60"/>
		<rect x="660" y="370" class="st0" width="140" height="60"/>
	</g>
	<g>
		<rect x="250.2" y="660" class="st0" width="60" height="140"/>
		<rect x="489.8" y="660" class="st0" width="60" height="140"/>
		<rect x="370" y="660" class="st0" width="60" height="140"/>
	</g>
	<g>
		<rect x="250.2" y="0" class="st0" width="60" height="140"/>
		<rect x="489.8" y="0" class="st0" width="60" height="140"/>
		<rect x="370" y="0" class="st0" width="60" height="140"/>
	</g>
	<g>
		<rect y="489.8" class="st0" width="140" height="60"/>
		<rect y="250.2" class="st0" width="140" height="60"/>
		<rect y="370" class="st0" width="140" height="60"/>
	</g>
	<path class="st0" d="M599.9,140.1c33.1,0,60,26.9,60,60v400c0,33.1-26.9,60-60,60h-400c-33.1,0-60-26.9-60-60v-400
		c0-33.1,26.9-60,60-60L599.9,140.1 M599.9,80.1h-400c-66.3,0-120,53.7-120,120v400c0,66.3,53.7,120,120,120h400
		c66.3,0,120-53.7,120-120v-400C719.9,133.8,666.1,80.1,599.9,80.1L599.9,80.1z"/>
	<g>
		<rect x="240" y="230.1" class="st0" width="60" height="340"/>
		<rect x="499.7" y="290.1" class="st0" width="60" height="229.7"/>
		<rect x="289" y="510.1" class="st0" width="270.7" height="60"/>
		<rect x="289" y="230.1" class="st0" width="210.7" height="60"/>
	</g>
</g>
<g id="b">
</g>
<g id="c">
</g>
</svg>
