<?xml version="1.0" encoding="UTF-8"?><svg xmlns="http://www.w3.org/2000/svg" viewBox="0 0 800 800"><defs><style>.d{fill:#18d693;}</style></defs><g id="a"/><g id="b"/><g id="c"><g><rect class="d" y="740" width="800" height="60"/><polygon class="d" points="140 380 180 380 180 700 240 700 240 380 240 320 80 320 80 380 80 700 140 700 140 380"/><polygon class="d" points="380 220 420 220 420 700 480 700 480 220 480 200 480 160 320 160 320 220 320 700 380 700 380 220"/><polygon class="d" points="620 60 660 60 660 0 560 0 560 60 560 700 620 700 620 60"/><rect class="d" x="660" y="60" width="60" height="640"/></g></g></svg>