<?xml version="1.0" encoding="UTF-8"?><svg xmlns="http://www.w3.org/2000/svg" viewBox="0 0 800 800"><defs><style>.d{fill:#18d693;}</style></defs><g id="a"><path class="d" d="M726.2432,682.329l.0149-.0093-226.4459-367.0527V160.2968h59.0909V60.9941h-60v38.3027h-197.4813V59.9941h197.6821V-.0059H239.1039V159.2968h59.5872v155.4263L72.2453,681.7758l.0149,.0093c-.0399,.0161-.0817,.0303-.1215,.0459,1.3305,62.5186,51.4122,114.4702,114.3835,117.7285v.0996h423.2763l.0183,.5439c63.9854-2.1636,115.2021-54.5942,116.5479-117.8281-.0398-.0161-.0815-.0303-.1215-.0459Zm-114.7316,57.6553v-.3252H190.1376c-26.9237-1.166-48.9918-19.9365-55.4597-44.8076l224.0143-363.1113-.0011-.0005V159.2968h81.121v172.9868l-.001,.0005,78.7375,127.6279h-118.554v60h155.5697l24.9535,40.4478h-101.8701v60h138.8857l46.2917,75.0356c-6.2141,23.8945-26.8279,42.1577-52.3137,44.5889Z"/></g><g id="b"/><g id="c"/></svg>