<?xml version="1.0" encoding="UTF-8"?><svg id="a" xmlns="http://www.w3.org/2000/svg" viewBox="0 0 800 800"><defs><style>.b{fill:#18d693;}</style></defs><path class="b" d="M195.33008,300.9502l.92969,2.20996c.38037,.92969,.77051,1.85986,1.16992,2.79004l104.81152,254.0498,16.50244,40,24.75391,60h112.99365l24.73682-60,16.49121-40,102.81104-249.37012c.00977-.02979,.01953-.06006,.04004-.08984,12.47949-27.62012,19.42969-58.27002,19.42969-90.54004C620,98.5,521.5,0,400,0S180,98.5,180,220c0,28.58008,5.4502,55.87988,15.37012,80.93018l-.04004,.02002ZM400,60c88.37012,0,160,71.62988,160,160,0,20.46973-3.83984,40.04004-10.8501,58.02979l-3.25977,7.76025c-.01025,.02002-.02002,.04004-.02002,.0498l-56.7998,135.37988-58.23486,138.78027-16.78467,40h-28.18066l-16.7832-40-58.24707-138.81982-58.26953-138.90039c-8.09033-19.13965-12.57031-40.18994-12.57031-62.27979,0-88.37012,71.62988-160,160-160Zm-.30127,260c55.06201,0,99.69873-44.63672,99.69873-99.69873s-44.63672-99.69873-99.69873-99.69873-99.69873,44.63672-99.69873,99.69873,44.63672,99.69873,99.69873,99.69873Zm.30127-140c22.09131,0,40,17.90869,40,40s-17.90869,40-40,40-40-17.90869-40-40,17.90869-40,40-40Zm240,420v200H160v-200h120v60h-60v80h360v-80h-60v-60h120Z"/></svg>