<?xml version="1.0" encoding="UTF-8"?><svg id="a" xmlns="http://www.w3.org/2000/svg" viewBox="0 0 800 800"><defs><style>.b{fill:#18d693;}</style></defs><path class="b" d="M540,460h60v20c0,66.27441-53.72583,120-120,120h-160c-66.27417,0-120-53.72559-120-120v-160c0-66.27441,53.72583-120,120-120h20v60h-20c-33.13721,0-60,26.86279-60,60v160c0,33.13721,26.86279,60,60,60h160c33.13721,0,60-26.86279,60-60v-20Zm-200,280H60V460h100v-60H0v400H400v-160.13184h-60v100.13184ZM800,210c0,115.97949-94.02002,210-210,210s-210-94.02051-210-210S474.02002,0,590,0s210,94.02002,210,210Zm-60,0c0-82.84277-67.15723-150-150-150s-150,67.15723-150,150,67.15723,150,150,150,150-67.15723,150-150Z"/></svg>