<?xml version="1.0" encoding="UTF-8"?><svg id="a" xmlns="http://www.w3.org/2000/svg" viewBox="0 0 800 800"><defs><style>.b{fill:#18d693;}</style></defs><path class="b" d="M560,740h80v60h-140v-60h-120v60H180v-67.56152C76.48633,705.7959,0,611.83008,0,500v-100c0-132.54834,107.45166-240,240-240h340c66.27441,0,120,53.72559,120,120h-60c0-33.13721-26.86279-60-60-60H240c-99.41113,0-180,80.58887-180,180v100c0,99.41113,80.58887,180,180,180v60h80v-60h240v60ZM400,60c33.13721,0,60,26.86279,60,60h60C520,53.72559,466.27441,0,400,0s-120,53.72559-120,120h60c0-33.13721,26.86279-60,60-60Zm300,280h-60c-33.13721,0-60-26.86279-60-60h-60c0,66.27441,53.72559,120,120,120h60c22.09131,0,40,17.90869,40,40v100c0,22.09131-17.90869,40-40,40h-60v160h60v-100c55.22852,0,100-44.77148,100-100v-100c0-55.22852-44.77148-100-100-100Z"/></svg>