<?xml version="1.0" encoding="UTF-8"?><svg id="a" xmlns="http://www.w3.org/2000/svg" viewBox="0 0 800 800"><defs><style>.b{fill:#18d693;}</style></defs><path class="b" d="M160,300c-66.27422,0-120,53.72578-120,120s53.72578,120,120,120,120-53.72578,120-120-53.72578-120-120-120Zm0,180c-33.13696,0-60-26.86304-60-60s26.86304-60,60-60,60,26.86285,60,60-26.86304,60-60,60Zm-40.00011,100h80.00023c66.27411,0,119.99989,53.72578,119.99989,119.99989v100.00011h-60v-100.00008c0-33.13704-26.86288-59.99992-59.99992-59.99992H119.99992c-33.13704,0-59.99992,26.86288-59.99992,59.99992v100.00008H0v-100.00011c0-66.27411,53.72578-119.99989,119.99989-119.99989Zm.00011-320V0H740.00002l-.00002,60h60V640H340.3662l-.00004-60h399.63385V60H180v200M700,120V440h-60V120h60Zm-100,320v80h-60v-80h60Zm-100-140v140h-60v-140h60Zm-100-60v200h-60V240h60Z"/></svg>