<?xml version="1.0" encoding="UTF-8"?><svg id="a" xmlns="http://www.w3.org/2000/svg" viewBox="0 0 800 800"><defs><style>.b{fill:#18d693;}</style></defs><path class="b" d="M238.41284,400l-53.48267-27.1958,81.58722-160.44775,53.4826,27.1958-81.58716,160.44775Zm417.95532-7.10693l-160.44794-81.58691-27.19574,53.48242,160.44794,81.5874,27.19574-53.48291Zm-98.80884,61.94189l-106.96527-54.39111-27.19574,53.48242,106.96527,54.3916,27.19574-53.48291Zm182.35571,285.16504h.09637l-.01703,60-319.9552-.09082h-.03833c.0094-33.13672-26.84595-60.00732-59.98303-60.0166-33.13708-.00977-60.00757,26.84619-60.01697,59.98291l-20-.00586-120.00085-.03369h0l-60-.01709,.1001-353.22803-61.05432-31.0459,27.19568-53.48291h0L193.15491,112.47656h0l27.19574-53.48242,53.4826,27.19531h0l53.65619,27.28418,.02734-.05566,53.48273,27.1958c-15.01959,29.5376-3.25067,65.65869,26.28699,80.67822,29.53766,15.02002,65.65875,3.25049,80.67834-26.28711l53.48267,27.1958-.02887,.05518,195.93073,99.62988h.00006l.23248,.11816-27.24231,53.33887,53.29706,27.22119-23.63922,46.48828-.0824,290.94775ZM119.72412,389.25781l85.6236,43.53955c34.75226-22.56641,80.25598-26.50195,119.8476-6.36963s63.21826,59.22021,65.45612,100.5957l192.58881,97.93066,126.91339-249.58545-210.27618-106.9248c-34.74445,22.53174-80.21796,26.45166-119.78662,6.33105-39.56873-20.12061-63.19031-59.1748-65.4516-100.52393l-68.00171-34.57861-126.91339,249.58545Zm344.23602,350.66406l215.9549,.06104,.04895-172.87012-43.24109,85.03711h.00006l-27.19574,53.48291-285.24072-145.04395c15.01965-29.5376,3.25073-65.65869-26.28693-80.67871-29.5376-15.01953-65.65869-3.25-80.67834,26.28711l-31.31085-15.92139-25.91888-13.17969-.07446,262.73975,96.05853,.02686c20.75897-35.86084,59.54309-59.98291,103.95929-59.97021,44.4162,.01221,83.18665,24.15625,103.92529,60.0293Z"/></svg>