<?xml version="1.0" encoding="UTF-8"?><svg id="a" xmlns="http://www.w3.org/2000/svg" viewBox="0 0 800 800"><defs><style>.b{fill:#18d693;}</style></defs><path class="b" d="M506.23633,598.78662l42.42676,42.42627-158.78711,158.78711-.00244-.00244-.00195,.00244-158.78662-158.78711,42.42627-42.42627,86.48877,86.48926V300h60v385.02344l86.23633-86.23682Zm150.55078-398.09229C638.02832,86.84717,539.16895,0,420.00879,0c-97.07812,0-180.6875,57.6416-218.4873,140.5625-3.8584-.23389-7.74512-.36523-11.6626-.36523C85.00293,140.19727,0,225.19971,0,330.05615s85.00293,189.85889,189.85889,189.85889c.04736,0,.09375-.00195,.14111-.00195v.08691h130v-60H190v.05615c-71.79688,0-130-58.20312-130-130,0-69.55322,54.62109-126.34814,123.30859-129.83057,2.21631-.1123,4.44727-.16943,6.69141-.16943,18.62256,0,36.32715,3.92041,52.34082,10.9751,12.63916,5.56787,24.2251,13.08691,34.37354,22.17969l39.86523-44.52246c-16.0625-14.4082-34.59766-26.11133-54.88477-34.41357,30.46924-56.15039,89.93896-94.2749,158.31396-94.2749,87.69922,0,160.73584,62.72266,176.73193,145.75244-6.33984,1.77588-12.52344,3.92383-18.51855,6.43555-.97607,.40918-1.94678,.8291-2.91309,1.25684-.30615,.13574-.60938,.27588-.91455,.41357-.66162,.29785-1.32227,.59717-1.97852,.90381-.35059,.16357-.69922,.33057-1.04834,.49658-.6167,.29346-1.23193,.58936-1.84424,.89062-.34668,.16992-.69189,.34229-1.03711,.51514-.62451,.3125-1.24707,.62939-1.8667,.9502-.31787,.16406-.63574,.32861-.95264,.49463-.67773,.35693-1.35254,.71924-2.0249,1.08496-.24902,.13574-.49951,.26953-.74756,.40625-.875,.48193-1.74512,.97168-2.60986,1.46924-.03955,.02295-.08008,.04541-.12012,.06836-1.90283,1.09766-3.78027,2.23486-5.63281,3.40771-.08887,.05664-.17676,.11377-.26562,.17041-.81836,.52051-1.63232,1.04834-2.44043,1.5835-.13818,.09131-.27588,.18408-.41357,.27588-.77539,.5166-1.54688,1.03955-2.3125,1.56934-.12402,.08594-.24805,.17188-.37158,.25781-.80908,.56299-1.61279,1.13281-2.41064,1.70996-.06543,.04736-.13086,.09424-.19629,.14209-4.46826,3.24365-8.7627,6.7124-12.86621,10.39014l38.05273,46.5083c1.19385-1.12891,2.41504-2.229,3.66357-3.29883,6.81689-5.84082,14.43848-10.76367,22.66113-14.61621,12.73682-5.96826,26.9292-9.3457,41.90967-9.41309,.15283-.00098,.30493-.00586,.45801-.00586,6.50732,0,12.86694,.62891,19.02783,1.81592,46.12695,8.88721,80.97217,49.46289,80.97217,98.18408,0,55.22852-44.77148,100-100,100v.18066h-180v60h180v-.18066c88.36572,0,160-71.63428,160-160,0-82.69531-62.73804-150.7334-143.21289-159.125Z"/></svg>