<?xml version="1.0" encoding="UTF-8"?><svg id="a" xmlns="http://www.w3.org/2000/svg" viewBox="0 0 800 800"><defs><style>.b{fill:#18d693;}</style></defs><path class="b" d="M339.92273,240h-60V0h180V60h-120v120h120V60h60v120h.07727v60h-180.07727Zm48.80017,463.15967l11.2771,58.93066-196.43561,37.59033-6.67035-34.85693-2.68182-14.01416-1.92499-10.05957-16.30573-85.2085L13.75177,510.15137l.00293-.00342-.01776,.00049L.9234,166.51074l.13293-.00488,58.82501-11.25684-.00891-.04688c65.09308-12.45605,127.95929,30.21436,140.41565,95.30713l26.31329,137.50488,.3136,1.63916c57.53119-1.31396,109.28302,39.02783,120.45844,97.42725l41.34949,216.0791Zm-169.78204-89.6875l88.29712-16.89697-18.79523-98.21777c-6.22821-32.54639-37.66132-53.88135-70.20782-47.65332l-39.28711,7.51807-11.2771-58.93066-26.31329-137.50488c-6.22821-32.54639-37.66132-53.88184-70.20782-47.65381l-8.34735,1.646,9.94366,266.67334,146.19495,131.02002Zm110.85138,100.96484l-11.27716-58.93066-78.57428,15.03613,11.27716,58.93066,78.57428-15.03613Zm456.62006-204.28857l-.01782-.00049,.00293,.00342-162.22968,145.39014-16.30579,85.2085-11.27716,58.93066-196.43561-37.59033,11.2771-58.93066,41.34949-216.0791c11.17542-58.39941,62.92725-98.74121,120.45844-97.42725l.3136-1.63916,26.31329-137.50488c12.45636-65.09277,75.32257-107.76318,140.41565-95.30713l-.00891,.04688,58.82501,11.25684,.13293,.00488-12.81348,343.6377Zm-226.20392,160.39404l-78.57428-15.03613-11.27716,58.93066,78.57428,15.03613,11.27716-58.93066Zm177.13855-454.76367l-8.34735-1.646c-32.54651-6.22803-63.97961,15.10742-70.20782,47.65381l-26.31323,137.50488-11.27716,58.93066-39.28711-7.51807c-32.54651-6.22803-63.97961,15.10693-70.20782,47.65332l-18.79523,98.21777,88.29706,16.89697,146.19501-131.02002,9.94366-266.67334Z"/></svg>